# xmcd
#
# Track frame offsets: 
#        150
#        12469
#        24661
#        39172
#        58216
#        71522
#        88151
#        104516
#        117750
#        142026
#        166383
#        189211
#        222426
#
# Disc length: 3186 seconds
#
# Revision: 0
# Processed by: cddbd v1.5.2PL0 Copyright (c) Steve Scherf et al.
# Submitted via: ExactAudioCopyFreeDBPlugin 1.0
#
DISCID=b80c700d
DTITLE=Jay Sewall - Payin' My dues
DYEAR=2018
DGENRE=blues
TTITLE0=I Like It Like That
TTITLE1=Maggie's Farm
TTITLE2=Quebec Blues
TTITLE3=Jay's Boogie Woogie
TTITLE4=I'm A Man
TTITLE5=Reelin' And Rockin'
TTITLE6=Goin' South
TTITLE7=House Of The Rising Sun
TTITLE8=I'm A Bluesman
TTITLE9=Summertime
TTITLE10=Got To Boogie
TTITLE11=Motor City Blues
TTITLE12=Blues From Chicago
EXTD=
EXTT0=
EXTT1=
EXTT2=
EXTT3=
EXTT4=
EXTT5=
EXTT6=
EXTT7=
EXTT8=
EXTT9=
EXTT10=
EXTT11=
EXTT12=
PLAYORDER=
